<svg xmlns="http://www.w3.org/2000/svg" viewBox="0 0 264.106 39.556">
  <defs>
    <style>
      .cls-1 {
        fill: #2a2b2a;
      }

      .cls-2 {
        fill: #f27b29;
      }
    </style>
  </defs>
  <g id="Logo" transform="translate(0 10.672)">
    <g id="Brokerage" transform="translate(0 0)">
      <path id="Path_2" data-name="Path 2" class="cls-1" d="M0,30.476V9.04H7.513a9.834,9.834,0,0,1,5.913,1.495,5.091,5.091,0,0,1,2.019,4.379,4.879,4.879,0,0,1-.813,2.78,4.6,4.6,0,0,1-2.255,1.757,4.482,4.482,0,0,1,2.6,1.665,4.967,4.967,0,0,1,.944,3.068,5.669,5.669,0,0,1-1.967,4.681,8.894,8.894,0,0,1-5.625,1.626H0ZM4.418,18.021H7.683c2.229-.039,3.343-.931,3.343-2.662a2.44,2.44,0,0,0-.852-2.1A4.44,4.44,0,0,0,7.5,12.619H4.418Zm0,3.12v5.782H8.207a3.664,3.664,0,0,0,2.439-.747,2.539,2.539,0,0,0,.878-2.058c0-1.967-1.023-2.963-3.055-2.989H4.418Z" transform="translate(0 -7.86)"/>
      <path id="Path_3" data-name="Path 3" class="cls-1" d="M23.025,17.294a11.5,11.5,0,0,0-1.534-.118c-1.613,0-2.662.551-3.16,1.639V29.238H14.07V13.308H18.1l.118,1.9a3.923,3.923,0,0,1,3.553-2.19,4.311,4.311,0,0,1,1.324.2Z" transform="translate(4.377 -6.622)"/>
      <path id="Path_4" data-name="Path 4" class="cls-1" d="M21.44,21.123a9.3,9.3,0,0,1,.918-4.222A6.7,6.7,0,0,1,24.98,14.03a7.6,7.6,0,0,1,3.986-1.01,7.29,7.29,0,0,1,5.271,1.967A7.841,7.841,0,0,1,36.5,20.349l.026,1.088a8.358,8.358,0,0,1-2.045,5.887,7.1,7.1,0,0,1-5.493,2.216,7.141,7.141,0,0,1-5.493-2.2,8.492,8.492,0,0,1-2.058-6Zm4.248.3A6.014,6.014,0,0,0,26.54,24.9,2.844,2.844,0,0,0,28.992,26.1,2.8,2.8,0,0,0,31.4,24.912a6.536,6.536,0,0,0,.865-3.8,5.9,5.9,0,0,0-.865-3.448,2.817,2.817,0,0,0-2.439-1.219,2.771,2.771,0,0,0-2.412,1.219A6.564,6.564,0,0,0,25.688,21.424Z" transform="translate(6.67 -6.622)"/>
      <path id="Path_5" data-name="Path 5" class="cls-1" d="M40.415,24.371l-1.534,1.534v4.864H34.62V8.14h4.261V20.674l.826-1.062,4.077-4.785H48.9l-5.756,6.634,6.254,9.3h-4.89Z" transform="translate(10.77 -8.14)"/>
      <path id="Path_6" data-name="Path 6" class="cls-1" d="M53.706,29.527a7.838,7.838,0,0,1-5.7-2.15,7.635,7.635,0,0,1-2.2-5.729v-.406a9.627,9.627,0,0,1,.931-4.287,6.82,6.82,0,0,1,2.622-2.911,7.4,7.4,0,0,1,3.881-1.023,6.63,6.63,0,0,1,5.153,2.058,8.4,8.4,0,0,1,1.875,5.847V22.67H50.113a3.991,3.991,0,0,0,1.246,2.5,3.766,3.766,0,0,0,2.622.944,4.571,4.571,0,0,0,3.841-1.783l2.085,2.347a6.364,6.364,0,0,1-2.6,2.111A8.643,8.643,0,0,1,53.706,29.527Zm-.485-13.085a2.7,2.7,0,0,0-2.058.852,4.439,4.439,0,0,0-1.01,2.452h5.913v-.328a3.26,3.26,0,0,0-.76-2.2A2.74,2.74,0,0,0,53.221,16.442Z" transform="translate(14.248 -6.622)"/>
      <path id="Path_7" data-name="Path 7" class="cls-1" d="M67.535,17.294A11.5,11.5,0,0,0,66,17.176c-1.613,0-2.662.551-3.16,1.639V29.238H58.58V13.308h4.025l.118,1.9a3.923,3.923,0,0,1,3.553-2.19,4.311,4.311,0,0,1,1.324.2Z" transform="translate(18.224 -6.622)"/>
      <path id="Path_8" data-name="Path 8" class="cls-1" d="M76.043,29.241a4.842,4.842,0,0,1-.433-1.429,5.142,5.142,0,0,1-4.025,1.718,5.644,5.644,0,0,1-3.881-1.35,4.373,4.373,0,0,1-1.534-3.422,4.486,4.486,0,0,1,1.875-3.881,9.188,9.188,0,0,1,5.428-1.364h1.954V18.6a2.631,2.631,0,0,0-.564-1.77,2.223,2.223,0,0,0-1.8-.669,2.578,2.578,0,0,0-1.691.511,1.753,1.753,0,0,0-.616,1.416H66.5a4.308,4.308,0,0,1,.852-2.557,5.617,5.617,0,0,1,2.412-1.849,8.773,8.773,0,0,1,3.5-.669,6.981,6.981,0,0,1,4.681,1.482,5.169,5.169,0,0,1,1.731,4.156v6.909a7.778,7.778,0,0,0,.629,3.435v.249H76.043Zm-3.514-2.963a3.762,3.762,0,0,0,1.744-.42,2.731,2.731,0,0,0,1.18-1.128v-2.74H73.866c-2.124,0-3.265.734-3.4,2.2l-.013.249a1.689,1.689,0,0,0,.564,1.311A2.01,2.01,0,0,0,72.529,26.278Z" transform="translate(20.585 -6.625)"/>
      <path id="Path_9" data-name="Path 9" class="cls-1" d="M78.15,21.152a9.292,9.292,0,0,1,1.744-5.9A5.651,5.651,0,0,1,84.6,13.01a4.971,4.971,0,0,1,4.077,1.8l.17-1.508H92.7V28.7a6.813,6.813,0,0,1-.944,3.632,6.1,6.1,0,0,1-2.675,2.36,9.444,9.444,0,0,1-4.038.813,8.918,8.918,0,0,1-3.422-.695A5.845,5.845,0,0,1,79.107,33L81,30.408a4.971,4.971,0,0,0,3.855,1.783,3.654,3.654,0,0,0,2.635-.9,3.313,3.313,0,0,0,.957-2.557v-.852a4.9,4.9,0,0,1-3.868,1.665A5.63,5.63,0,0,1,79.933,27.3a9.352,9.352,0,0,1-1.77-5.952v-.2Zm4.261.315a5.854,5.854,0,0,0,.865,3.409,2.784,2.784,0,0,0,2.386,1.232,2.926,2.926,0,0,0,2.78-1.468V17.913a2.948,2.948,0,0,0-2.753-1.468A2.791,2.791,0,0,0,83.276,17.7,6.65,6.65,0,0,0,82.411,21.467Z" transform="translate(24.312 -6.625)"/>
      <path id="Path_10" data-name="Path 10" class="cls-1" d="M98.646,29.527a7.838,7.838,0,0,1-5.7-2.15,7.635,7.635,0,0,1-2.2-5.729v-.406a9.627,9.627,0,0,1,.931-4.287,6.82,6.82,0,0,1,2.622-2.911,7.4,7.4,0,0,1,3.881-1.023,6.63,6.63,0,0,1,5.153,2.058,8.4,8.4,0,0,1,1.875,5.847V22.67H95.053a3.991,3.991,0,0,0,1.246,2.5,3.766,3.766,0,0,0,2.622.944,4.571,4.571,0,0,0,3.841-1.783l2.085,2.347a6.364,6.364,0,0,1-2.6,2.111A8.686,8.686,0,0,1,98.646,29.527Zm-.485-13.085a2.7,2.7,0,0,0-2.058.852,4.439,4.439,0,0,0-1.01,2.452h5.913v-.328a3.26,3.26,0,0,0-.76-2.2A2.74,2.74,0,0,0,98.161,16.442Z" transform="translate(28.228 -6.622)"/>
    </g>
    <g id="Engine" transform="translate(141.912 0.367)">
      <path id="Path_11" data-name="Path 11" class="cls-1" d="M121.141,21.154h-8.483v5.769h9.951v3.553H108.24V9.04h14.343v3.579h-9.925v5.113h8.483Z" transform="translate(-108.24 -8.227)"/>
      <path id="Path_12" data-name="Path 12" class="cls-1" d="M125.289,13.312l.131,1.836A5.544,5.544,0,0,1,130,13.01a4.657,4.657,0,0,1,3.776,1.482,6.985,6.985,0,0,1,1.272,4.445V29.228h-4.261v-10.2a2.756,2.756,0,0,0-.59-1.967,2.642,2.642,0,0,0-1.954-.616,2.912,2.912,0,0,0-2.688,1.534V29.241H121.29V13.312Z" transform="translate(-104.18 -6.992)"/>
      <path id="Path_13" data-name="Path 13" class="cls-1" d="M133.3,21.152a9.292,9.292,0,0,1,1.744-5.9,5.651,5.651,0,0,1,4.707-2.242,4.971,4.971,0,0,1,4.077,1.8L144,13.3h3.855V28.7a6.813,6.813,0,0,1-.944,3.632,6.1,6.1,0,0,1-2.675,2.36,9.444,9.444,0,0,1-4.038.813,8.918,8.918,0,0,1-3.422-.695A5.844,5.844,0,0,1,134.257,33l1.888-2.6A4.971,4.971,0,0,0,140,32.191a3.653,3.653,0,0,0,2.635-.9,3.385,3.385,0,0,0,.944-2.57v-.852a4.9,4.9,0,0,1-3.868,1.665,5.63,5.63,0,0,1-4.641-2.242,9.352,9.352,0,0,1-1.77-5.952Zm4.248.315a5.854,5.854,0,0,0,.865,3.409,2.753,2.753,0,0,0,2.386,1.232,2.926,2.926,0,0,0,2.78-1.468V17.913a2.948,2.948,0,0,0-2.753-1.468,2.791,2.791,0,0,0-2.412,1.259A6.651,6.651,0,0,0,137.548,21.467Z" transform="translate(-100.444 -6.992)"/>
      <path id="Path_14" data-name="Path 14" class="cls-1" d="M146.41,10.61a2.056,2.056,0,0,1,.642-1.573,2.775,2.775,0,0,1,3.488,0,2.056,2.056,0,0,1,.642,1.573,2.1,2.1,0,0,1-.656,1.586,2.738,2.738,0,0,1-3.461,0A2.076,2.076,0,0,1,146.41,10.61Zm4.523,20.06h-4.274V14.739h4.274Z" transform="translate(-96.366 -8.42)"/>
      <path id="Path_15" data-name="Path 15" class="cls-1" d="M155.939,13.312l.131,1.836a5.544,5.544,0,0,1,4.576-2.137,4.657,4.657,0,0,1,3.776,1.482,6.985,6.985,0,0,1,1.272,4.445V29.228h-4.261v-10.2a2.756,2.756,0,0,0-.59-1.967,2.642,2.642,0,0,0-1.954-.616,2.912,2.912,0,0,0-2.688,1.534V29.241H151.94V13.312Z" transform="translate(-94.645 -6.992)"/>
      <path id="Path_16" data-name="Path 16" class="cls-1" d="M171.776,29.527a7.838,7.838,0,0,1-5.7-2.15,7.635,7.635,0,0,1-2.2-5.729v-.406a9.627,9.627,0,0,1,.931-4.287,6.82,6.82,0,0,1,2.622-2.911A7.4,7.4,0,0,1,171.3,13.02a6.63,6.63,0,0,1,5.153,2.058,8.4,8.4,0,0,1,1.875,5.847V22.67H168.183a3.991,3.991,0,0,0,1.246,2.5,3.766,3.766,0,0,0,2.622.944,4.571,4.571,0,0,0,3.841-1.783l2.085,2.347a6.364,6.364,0,0,1-2.6,2.111A8.686,8.686,0,0,1,171.776,29.527Zm-.485-13.085a2.7,2.7,0,0,0-2.058.852,4.44,4.44,0,0,0-1.01,2.452h5.913v-.328a3.26,3.26,0,0,0-.76-2.2A2.74,2.74,0,0,0,171.291,16.442Z" transform="translate(-90.934 -6.989)"/>
    </g>
    <path id="Path_1" data-name="Path 1" class="cls-2" d="M205.916,11.393m2.321,4.785M193.539,0l-12.3,11.42c-1.731,4.812.026,0-1.691,4.812.17.131,1.219.931,1.7,1.311a12.887,12.887,0,0,0-.066,1.429,12.58,12.58,0,0,0,.144,1.862c-.236.21-.76.695-1.665,1.508a12.567,12.567,0,0,0,2.111,4.681c.21-.026,1.534-.17,2.137-.236a12.744,12.744,0,0,0,2.321,2.281c-.013.3-.052,1.023-.144,2.281a12.544,12.544,0,0,0,4.785,1.862c.144-.17,1.01-1.232,1.39-1.691a12.936,12.936,0,0,0,1.6.1,12.561,12.561,0,0,0,1.586-.1c.17.2.669.747,1.534,1.757a12.479,12.479,0,0,0,4.72-2.019c-.026-.223-.144-1.639-.2-2.2a12.883,12.883,0,0,0,2.255-2.216c.249.013.983.066,2.347.184a12.6,12.6,0,0,0,1.954-4.746c-.17-.144-1.246-1.062-1.691-1.442a12.617,12.617,0,0,0,.144-1.875c0-.433-.026-.865-.066-1.3.2-.17.76-.642,1.8-1.508l-2.334-4.8L202.966,8.9V2.845h-5.087V4.353L193.539,0m.315,26.235a7.263,7.263,0,1,1,7.263-7.263A7.263,7.263,0,0,1,193.854,26.235Z" transform="translate(55.856 -10.672)"/>
  </g>
</svg>
